{"title":"What History Forgot S01E02 Crooks DSR EN-SUB x264-W4F","uid":12090440,"size":351321723,"categoryP":"video","categoryS":"tv_shows","magnet":"?xt=urn:btih:e5059bb685df147049618f9553cf2a341dad8fcc&amp;dn=What+History+Forgot+S01E02+Crooks+DSR+EN-SUB+x264-W4F&amp;tr=udp%3A%2F%2Ftracker.openbittorrent.com%3A80&amp;tr=udp%3A%2F%2Fopen.demonii.com%3A1337&amp;tr=udp%3A%2F%2Ftracker.coppersurfer.tk%3A6969&amp;tr=udp%3A%2F%2Fexodus.desync.com%3A6969","seeders":0,"leechers":0,"uploader":"Mulva1989","files":2,"time":1436029636,"description":"What History Forgot S01E02 Crooks DSR EN-SUB x264-W4F\n\nWe all know about the 9/11 terrorist attack, but did you know there was another deadly act of terrorism in New York City on Wall Street in 1920? Or how about the fact that the boy scouts, a deeply American tradition, was actually founded by a British spy! And, would you guess one of America's most beloved beverages -- Coca-Cola got so popular because it used to have an ingredient that made it impossible to resist? Plus, what about DB Cooper? A lot of people have heard his name but very few know the details of how his heist went down. Moniaci exposes the secrets behind some of America's biggest crooks, schemes, and scandals.\n\nScreens @ &lt;a href=&quot;\nhttps://yuq.me/users/50/321/6MG8YTVlXN.jpg&quot; rel=&quot;nofollow&quot; target=&quot;_NEW&quot;&gt;\nhttps://yuq.me/users/50/321/6MG8YTVlXN.jpg&lt;/a&gt; &lt;a href=&quot;\nhttps://yuq.me/users/50/321/b7Xha5QTAM.jpg&quot; rel=&quot;nofollow&quot; target=&quot;_NEW&quot;&gt;\nhttps://yuq.me/users/50/321/b7Xha5QTAM.jpg&lt;/a&gt;\n\nFormat : MPEG-4\nFormat profile : Base Media\nCodec ID : isom\nFile size : 335 MiB\nDuration : 44mn 33s\nOverall bit rate mode : Variable\nOverall bit rate : 1 051 Kbps\nEncoded date : UTC 2015-06-21 21:49:16\nTagged date : UTC 2015-06-21 21:49:16\n\nVideo\nID : 1\nFormat : AVC\nFormat/Info : Advanced Video Codec\nFormat profile : &lt;a class=&quot;__cf_email__&quot; href=&quot;/cdn-cgi/l/email-protection&quot; data-cfemail=&quot;aae2c3cdc2eae699849b&quot;&gt;[email&amp;#160;protected]&lt;/a&gt;&lt;script data-cfhash='f9e31' type=&quot;text/javascript&quot;&gt;\n/* &lt;![CDATA[ */!function(){try{var t=&quot;currentScript&quot;in document?document.currentScript:function(){for(var t=document.getElementsByTagName(&quot;script&quot;),e=t.length;e--;)if(t[e].getAttribute(&quot;data-cfhash&quot;))return t[e]}();if(t&amp;&amp;t.previousSibling){var e,r,n,i,c=t.previousSibling,a=c.getAttribute(&quot;data-cfemail&quot;);if(a){for(e=&quot;&quot;,r=parseInt(a.substr(0,2),16),n=2;a.length-n;n+=2)i=parseInt(a.substr(n,2),16)^r,e+=String.fromCharCode(i);e=document.createTextNode(e),c.parentNode.replaceChild(e,c)}t.parentNode.removeChild(t);}}catch(u){}}()/* ]]&gt; */&lt;/script&gt;\nFormat settings, CABAC : Yes\nFormat settings, ReFrames : 5 frames\nCodec ID : avc1\nCodec ID/Info : Advanced Video Coding\nDuration : 44mn 31s\nBit rate : 914 Kbps\nMaximum bit rate : 5 611 Kbps\nWidth : 640 pixels\nHeight : 358 pixels\nDisplay aspect ratio : 16:9\nFrame rate mode : Constant\nFrame rate : 29.970 fps\nColor space : YUV\nChroma subsampling : 4:2:0\nBit depth : 8 bits\nScan type : Progressive\nBits/(Pixel*Frame) : 0.133\nStream size : 291 MiB (87%)\nWriting library : x264 core 146 r2538 121396c\nEncoding settings : cabac=1 / ref=5 / deblock=1:-1:-1 / analyse=0x3:0x113 / me=umh / subme=8 / psy=1 / psy_rd=1.00:0.15 / mixed_ref=1 / me_range=16 / chroma_me=1 / trellis=1 / 8x8dct=1 / cqm=0 / deadzone=21,11 / fast_pskip=1 / chroma_qp_offset=-3 / threads=12 / lookahead_threads=2 / sliced_threads=0 / nr=0 / decimate=1 / interlaced=0 / bluray_compat=0 / constrained_intra=0 / bframes=3 / b_pyramid=2 / b_adapt=2 / b_bias=0 / direct=3 / weightb=1 / open_gop=0 / weightp=2 / keyint=250 / keyint_min=25 / scenecut=40 / intra_refresh=0 / rc_lookahead=50 / rc=crf / mbtree=1 / crf=21.0 / qcomp=0.60 / qpmin=0 / qpmax=69 / qpstep=4 / ip_ratio=1.40 / aq=1:1.00\nEncoded date : UTC 2015-06-21 21:49:16\nTagged date : UTC 2015-06-21 21:49:36\n\nAudio\nID : 2\nFormat : AAC\nFormat/Info : Advanced Audio Codec\nFormat profile : LC\nCodec ID : 40\nDuration : 44mn 31s\nBit rate mode : Variable\nBit rate : 132 Kbps\nMaximum bit rate : 170 Kbps\nChannel(s) : 2 channels\nChannel positions : Front: L R\nSampling rate : 48.0 KHz\nCompression mode : Lossy\nStream size : 42.5 MiB (13%)\nLanguage : English\nEncoded date : UTC 2015-06-21 21:49:35\nTagged date : UTC 2015-06-21 21:49:36\n\nText\nID : 3\nFormat : Timed Text\nCodec ID : tx3g\nDuration : 44mn 33s\nBit rate mode : Variable\nBit rate : 157 bps\nStream size : 51.4 KiB (0%)\nLanguage : English\nEncoded date : UTC 2015-06-21 21:49:36\nTagged date : UTC 2015-06-21 21:49:36","torrent":{"xt":"urn:btih:e5059bb685df147049618f9553cf2a341dad8fcc","amp;dn":"What+History+Forgot+S01E02+Crooks+DSR+EN-SUB+x264-W4F","amp;tr":["udp%3A%2F%2Ftracker.openbittorrent.com%3A80","udp%3A%2F%2Fopen.demonii.com%3A1337","udp%3A%2F%2Ftracker.coppersurfer.tk%3A6969","udp%3A%2F%2Fexodus.desync.com%3A6969"],"infoHash":"e5059bb685df147049618f9553cf2a341dad8fcc","infoHashBuffer":{"type":"Buffer","data":[229,5,155,182,133,223,20,112,73,97,143,149,83,207,42,52,29,173,143,204]},"announce":[],"urlList":[]}}